<?xml version="1.0" encoding="UTF-8" standalone="no"?>
<!DOCTYPE svg PUBLIC "-//W3C//DTD SVG 1.1//EN"
 "http://www.w3.org/Graphics/SVG/1.1/DTD/svg11.dtd">
<!-- Generated by graphviz version 12.1.2 (20240928.0832)
 -->
<!-- Title: resource&#45;planner Pages: 1 -->
<svg width="364pt" height="198pt"
 viewBox="0.00 0.00 364.48 197.60" xmlns="http://www.w3.org/2000/svg" xmlns:xlink="http://www.w3.org/1999/xlink">
<g id="graph0" class="graph" transform="scale(1 1) rotate(0) translate(4 193.6)">
<title>resource&#45;planner</title>
<polygon fill="white" stroke="none" points="-4,4 -4,-193.6 360.48,-193.6 360.48,4 -4,4"/>
<!-- resource&#45;planner -->
<g id="node1" class="node">
<title>resource&#45;planner</title>
<polygon fill="#efefef" stroke="none" points="46.2,-107.8 46.2,-143.4 310.28,-143.4 310.28,-107.8 46.2,-107.8"/>
<polygon fill="none" stroke="black" points="46.2,-107.8 46.2,-143.4 310.28,-143.4 310.28,-107.8 46.2,-107.8"/>
<text text-anchor="start" x="53.2" y="-121.2" font-family="Arial Bold" font-size="18.00">resource&#45;planner</text>
<text text-anchor="start" x="174.13" y="-121.2" font-family="Arial" font-size="14.00">    </text>
<text text-anchor="start" x="205.25" y="-121.2" font-family="Arial" font-size="14.00" fill="#666666">[BASIC TABLE]</text>
<polygon fill="none" stroke="black" points="46.2,-77 46.2,-107.8 310.28,-107.8 310.28,-77 46.2,-77"/>
<text text-anchor="start" x="53.2" y="-89.2" font-family="Arial" font-size="14.00">pk </text>
<text text-anchor="start" x="71.88" y="-89.2" font-family="Arial" font-size="14.00" fill="#666666">[S]</text>
<polygon fill="none" stroke="black" points="46.2,-46.2 46.2,-77 310.28,-77 310.28,-46.2 46.2,-46.2"/>
<text text-anchor="start" x="53.2" y="-58.4" font-family="Arial" font-size="14.00">sk </text>
<text text-anchor="start" x="71.09" y="-58.4" font-family="Arial" font-size="14.00" fill="#666666">[S]</text>
<polygon fill="none" stroke="black" stroke-width="3" points="44.7,-44.7 44.7,-144.9 311.78,-144.9 311.78,-44.7 44.7,-44.7"/>
</g>
</g>
</svg>
