<?xml version="1.0" encoding="UTF-8" standalone="no"?>
<!DOCTYPE svg PUBLIC "-//W3C//DTD SVG 1.1//EN"
 "http://www.w3.org/Graphics/SVG/1.1/DTD/svg11.dtd">
<!-- Generated by graphviz version 12.1.2 (20240928.0832)
 -->
<!-- Title: Amazon DynamoDB (ap&#45;northeast&#45;1) Pages: 1 -->
<svg width="358pt" height="253pt"
 viewBox="0.00 0.00 358.48 253.20" xmlns="http://www.w3.org/2000/svg" xmlns:xlink="http://www.w3.org/1999/xlink">
<g id="graph0" class="graph" transform="scale(1 1) rotate(0) translate(4 249.2)">
<title>Amazon DynamoDB (ap&#45;northeast&#45;1)</title>
<polygon fill="white" stroke="none" points="-4,4 -4,-249.2 354.48,-249.2 354.48,4 -4,4"/>
<!-- resource&#45;planner -->
<g id="node1" class="node">
<title>resource&#45;planner</title>
<polygon fill="#efefef" stroke="none" points="43.2,-166.4 43.2,-202 307.28,-202 307.28,-166.4 43.2,-166.4"/>
<polygon fill="none" stroke="black" points="43.2,-166.4 43.2,-202 307.28,-202 307.28,-166.4 43.2,-166.4"/>
<text text-anchor="start" x="50.2" y="-179.8" font-family="Arial Bold" font-size="18.00">resource&#45;planner</text>
<text text-anchor="start" x="171.13" y="-179.8" font-family="Arial" font-size="14.00">    </text>
<text text-anchor="start" x="202.25" y="-179.8" font-family="Arial" font-size="14.00" fill="#666666">[BASIC TABLE]</text>
<polygon fill="none" stroke="black" points="43.2,-135.6 43.2,-166.4 307.28,-166.4 307.28,-135.6 43.2,-135.6"/>
<text text-anchor="start" x="50.2" y="-147.8" font-family="Arial" font-size="14.00">pk </text>
<text text-anchor="start" x="68.88" y="-147.8" font-family="Arial" font-size="14.00" fill="#666666">[S]</text>
<polygon fill="none" stroke="black" points="43.2,-104.8 43.2,-135.6 307.28,-135.6 307.28,-104.8 43.2,-104.8"/>
<text text-anchor="start" x="50.2" y="-117" font-family="Arial" font-size="14.00">sk </text>
<text text-anchor="start" x="68.09" y="-117" font-family="Arial" font-size="14.00" fill="#666666">[S]</text>
<polygon fill="none" stroke="black" points="43.2,-74 43.2,-104.8 307.28,-104.8 307.28,-74 43.2,-74"/>
<text text-anchor="start" x="50.2" y="-86.2" font-family="Arial" font-size="14.00">GSI1PK </text>
<text text-anchor="start" x="104.67" y="-86.2" font-family="Arial" font-size="14.00" fill="#666666">[S]</text>
<polygon fill="none" stroke="black" points="43.2,-43.2 43.2,-74 307.28,-74 307.28,-43.2 43.2,-43.2"/>
<text text-anchor="start" x="50.2" y="-55.4" font-family="Arial" font-size="14.00">GSI1SK </text>
<text text-anchor="start" x="104.67" y="-55.4" font-family="Arial" font-size="14.00" fill="#666666">[S]</text>
</g>
</g>
</svg>
